<?xml version="1.0" standalone="no"?>
<!DOCTYPE svg PUBLIC "-//W3C//DTD SVG 20010904//EN"
 "http://www.w3.org/TR/2001/REC-SVG-20010904/DTD/svg10.dtd">
<svg version="1.0" xmlns="http://www.w3.org/2000/svg"
 width="512.000000pt" height="512.000000pt" viewBox="0 0 512.000000 512.000000"
 preserveAspectRatio="xMidYMid meet">

<g transform="translate(0.000000,512.000000) scale(0.100000,-0.100000)"
fill="#000000" stroke="none">
<path d="M2465 4503 c-38 -10 -2416 -873 -2435 -883 -11 -6 -23 -22 -26 -35
-14 -54 2 -62 412 -214 214 -79 424 -157 466 -173 l78 -30 0 -580 c0 -416 3
-592 12 -620 32 -107 256 -249 542 -343 274 -90 603 -135 991 -135 543 0 1010
108 1317 305 93 60 145 109 169 160 17 38 19 76 19 621 l0 582 203 72 c603
217 770 280 788 296 24 22 25 66 1 87 -28 26 -2416 888 -2471 892 -25 2 -55 1
-66 -2z"/>
</g>
</svg>
